# xmcd
#
# Track frame offsets: 
#        150
#        12021
#        29073
#        47211
#        61871
#        72288
#        83970
#        102073
#        121311
#        123952
#        143641
#        162389
#        179839
#
# Disc length: 2659 seconds
#
# Revision: 1
# Processed by: cddbd v1.5.2PL0 Copyright (c) Steve Scherf et al.
# Submitted via: ExactAudioCopy v0.99pb5
#
DISCID=b20a610d
DTITLE=White Stripes - Get Behind Me Satan
DYEAR=2005
DGENRE=Blues
TTITLE0=Blue Orchid
TTITLE1=The Nurse
TTITLE2=My Doorbell
TTITLE3=Forever For Her (Is Over For Me)
TTITLE4=Little Ghost
TTITLE5=The Denial Twist
TTITLE6=White Moon
TTITLE7=Instinct Blues
TTITLE8=Passive Manipulation
TTITLE9=Take, Take, Take
TTITLE10=As Ugly As I Seem
TTITLE11=Red Rain
TTITLE12=I'm Lonely (But I Ain't That Lonely Yet)
EXTD=
EXTT0=
EXTT1=
EXTT2=
EXTT3=
EXTT4=
EXTT5=
EXTT6=
EXTT7=
EXTT8=
EXTT9=
EXTT10=
EXTT11=
EXTT12=
PLAYORDER=
